<svg id="visual" viewBox="0 0 900 600" width="900" height="600" xmlns="http://www.w3.org/2000/svg" xmlns:xlink="http://www.w3.org/1999/xlink" version="1.1"><path d="M57 0L53 4.5C49 9 41 18 38 27.2C35 36.3 37 45.7 40 54.8C43 64 47 73 47.2 82C47.3 91 43.7 100 41.5 109C39.3 118 38.7 127 41 136.2C43.3 145.3 48.7 154.7 50.7 163.8C52.7 173 51.3 182 48.2 191C45 200 40 209 37.5 218C35 227 35 236 36.5 245.2C38 254.3 41 263.7 43.2 272.8C45.3 282 46.7 291 45.5 300C44.3 309 40.7 318 41.3 327.2C42 336.3 47 345.7 47 354.8C47 364 42 373 41.2 382C40.3 391 43.7 400 46.7 409C49.7 418 52.3 427 52.8 436.2C53.3 445.3 51.7 454.7 48.7 463.8C45.7 473 41.3 482 38.5 491C35.7 500 34.3 509 35.7 518C37 527 41 536 41 545.2C41 554.3 37 563.7 39 572.8C41 582 49 591 53 595.5L57 600" fill="none" stroke-linecap="round" stroke-linejoin="miter" stroke="#198754" stroke-width="5"></path></svg>