<svg id="visual" viewBox="0 0 900 600" width="900" height="600" xmlns="http://www.w3.org/2000/svg" xmlns:xlink="http://www.w3.org/1999/xlink" version="1.1"><g transform="translate(471.92225108048194 304.30101824132214)"><path d="M132.1 -228.3C171.5 -206 203.9 -171.3 212 -131.1C220.1 -91 203.8 -45.5 191.4 -7.2C179 31.2 170.5 62.3 164.2 105.6C158 148.9 154 204.4 127 231.1C100 257.9 50 255.9 4.8 247.7C-40.5 239.5 -81 225 -117.8 203.9C-154.6 182.8 -187.7 155.1 -214.1 120.1C-240.6 85 -260.3 42.5 -257.8 1.4C-255.4 -39.7 -230.7 -79.3 -208 -120.8C-185.2 -162.2 -164.4 -205.4 -130 -230.5C-95.7 -255.7 -47.8 -262.8 -0.8 -261.6C46.3 -260.3 92.7 -250.5 132.1 -228.3" fill="#198754"></path></g></svg>