<svg id="visual" viewBox="0 0 900 600" width="900" height="600" xmlns="http://www.w3.org/2000/svg" xmlns:xlink="http://www.w3.org/1999/xlink" version="1.1"><path d="M0 593L25 593C50 593 100 593 150 591C200 589 250 585 300 568.7C350 552.3 400 523.7 450 515.2C500 506.7 550 518.3 600 526.3C650 534.3 700 538.7 750 531.3C800 524 850 505 875 495.5L900 486L900 601L875 601C850 601 800 601 750 601C700 601 650 601 600 601C550 601 500 601 450 601C400 601 350 601 300 601C250 601 200 601 150 601C100 601 50 601 25 601L0 601Z" fill="#132f38"></path></svg>